<mxfile host="app.diagrams.net" modified="2024-06-16T13:33:47.161Z" agent="Mozilla/5.0 (Windows NT 10.0; Win64; x64) AppleWebKit/537.36 (KHTML, like Gecko) Chrome/123.0.0.0 Safari/537.36 OPR/109.0.0.0" version="24.5.4" etag="wDZQLSR9e_m9Fr3JhQDU" type="github">
  <diagram name="PÃ¡gina-1" id="LX6SLbpxEXUsn1LaXYkQ">
    <mxGraphModel>
      <root>
        <mxCell id="0" />
        <mxCell id="1" parent="0" />
      </root>
    </mxGraphModel>
  </diagram>
</mxfile>
